PathFileType	4	(X/Y/Z)	D:\TRACE\spot_10-12-23\spot_body_motion_3_4-platform.trc
DataRate	CameraRate	NumFrames	NumMarkers	Units	OrigDataRate	OrigDataStartFrame	OrigNumFrames
100.00	100.00	      60	5	mm	100.00	4376	      7000
Frame#	Time	Left_Front			Right_Front			Left_Aft			Right_Aft			Post			
		X1	Y1	Z1	X2	Y2	Z2	X3	Y3	Z3	X4	Y4	Z4	X5	Y5	Z5	

4376	43.750	-776.10181	33.42776	-634.35876	796.53113	37.75484	-627.72211	-692.82007	-13.37480	502.38867	724.63385	-11.92790	588.47888	6.85982	783.25580	-922.11292	
4377	43.760	-775.87054	33.46653	-634.38409	796.82672	37.75572	-627.67999	-692.68219	-13.29530	502.41647	724.81323	-11.91992	588.49408	6.95738	783.23090	-922.15210	
4378	43.770	-775.54602	33.46234	-634.43738	797.07257	37.81462	-627.66949	-692.50372	-13.29462	502.38898	725.04785	-11.90356	588.51868	7.26482	783.25403	-922.23895	
4379	43.780	-775.28461	33.47342	-634.49176	797.37677	37.94117	-627.65741	-692.12988	-13.30467	502.42261	725.27582	-11.95109	588.47314	7.55525	783.35553	-922.34814	
4380	43.790	-774.96161	33.42952	-634.52722	797.71301	38.03259	-627.57251	-691.85498	-13.24571	502.45557	725.57611	-11.99816	588.49219	7.90524	783.42737	-922.50909	
4381	43.800	-774.68518	33.42794	-634.51587	797.99854	38.00904	-627.63153	-691.53693	-13.27288	502.46609	725.84668	-12.03854	588.51990	8.17913	783.41504	-922.56726	
4382	43.810	-774.66229	33.60592	-634.56537	798.28284	37.92635	-627.62469	-691.27405	-13.23521	502.45142	726.13025	-12.01654	588.51910	8.38403	783.41144	-922.64020	
4383	43.820	-774.46173	33.65910	-634.63458	798.47369	37.85413	-627.61292	-691.07410	-13.19997	502.46982	726.40790	-11.99122	588.54163	8.51182	783.33142	-922.64362	
4384	43.830	-774.22748	33.69531	-634.58295	798.63538	37.79935	-627.63116	-690.83221	-13.22634	502.45688	726.66388	-11.95748	588.56171	8.79168	783.17670	-922.69910	
4385	43.840	-773.96240	33.67737	-634.60870	798.88977	37.74670	-627.65924	-690.53546	-13.31811	502.41611	726.78796	-11.88281	588.65869	9.00003	783.07806	-922.75848	
4386	43.850	-773.55792	33.58093	-634.61487	799.04803	37.81458	-627.77582	-690.32233	-13.14441	502.42670	727.11279	-11.79478	588.60175	9.18628	782.91180	-922.79462	
4387	43.860	-773.27374	33.33130	-634.60950	799.26129	37.57502	-627.85828	-690.09644	-13.09799	502.42130	727.31293	-11.68403	588.57324	9.30046	782.78809	-922.84650	
4388	43.870	-773.07813	33.21198	-634.68604	799.57727	37.42223	-627.91718	-689.86707	-13.08226	502.34702	727.46692	-11.62552	588.56409	9.38697	782.63770	-922.94672	
4389	43.880	-772.85779	33.13752	-634.72681	799.71771	37.39752	-628.02704	-689.69812	-13.14145	502.31216	727.62103	-11.64686	588.48846	9.54005	782.52661	-923.00616	
4390	43.890	-772.86981	33.12091	-634.61456	799.88617	37.44091	-628.05133	-689.44348	-12.99468	502.29880	727.81238	-11.59955	588.43225	9.72756	782.39575	-923.11292	
4391	43.900	-772.67743	33.07087	-634.64789	800.00812	37.30597	-628.02576	-689.22174	-12.88910	502.25204	727.90448	-11.45012	588.39478	9.90170	782.32715	-923.33807	
4392	43.910	-772.42029	33.03119	-634.71643	800.11414	37.23871	-628.04828	-689.13464	-12.79277	502.21738	728.08453	-11.46505	588.31134	10.09088	782.26111	-923.62433	
4393	43.920	-772.14417	32.90176	-634.71436	800.36749	37.32397	-628.02612	-688.94501	-12.81629	502.24103	728.23816	-11.50164	588.25879	10.52218	782.25098	-923.91541	
4394	43.930	-771.85425	32.89743	-634.66321	800.56519	37.37394	-627.94037	-688.77704	-12.81102	502.19156	728.36676	-11.58846	588.22736	10.78566	782.30542	-924.12463	
4395	43.940	-771.66632	32.99727	-634.63391	800.81219	37.28134	-627.82849	-688.58160	-12.91817	502.22705	728.57129	-11.67020	588.18127	10.97646	782.43292	-924.26038	
4396	43.950	-771.47314	32.92484	-634.62018	800.96973	37.36444	-627.83533	-688.36017	-12.93351	502.17880	728.82397	-11.69327	588.15106	11.12348	782.53906	-924.30017	
4397	43.960	-771.39020	32.90975	-634.61346	801.17267	37.42240	-627.72247	-688.26740	-12.90823	502.17389	729.00427	-11.71703	588.14093	11.26828	782.62897	-924.23090	
4398	43.970	-771.27466	32.88112	-634.66693	801.24591	37.49328	-627.75690	-688.18872	-12.85844	502.20895	729.16852	-11.69494	588.08240	11.12465	782.70154	-924.10522	
4399	43.980	-771.43213	33.12289	-634.63733	801.46436	37.40693	-627.72937	-688.06866	-12.84254	502.23953	729.32153	-11.79825	588.13824	11.42612	782.66779	-923.78735	
4400	43.990	-771.30457	33.03225	-634.67084	801.58911	37.32652	-627.73932	-688.01239	-12.84774	502.25143	729.55365	-11.78216	588.14435	11.72655	782.60577	-923.21686	
4401	44.000	-771.21228	32.98518	-634.67480	801.77014	37.34661	-627.73767	-687.91248	-12.86318	502.17703	729.57709	-11.78391	588.13007	11.76565	782.53973	-922.95892	
4402	44.010	-771.09808	32.96556	-634.67651	801.87549	37.31156	-627.79041	-687.80945	-12.84207	502.14554	729.73047	-11.78648	588.07452	11.85914	782.53143	-922.72034	
4403	44.020	-771.04236	32.96402	-634.65637	801.89514	37.34481	-627.80396	-687.77490	-12.81246	502.15399	729.84698	-11.85525	588.07129	11.97103	782.61890	-922.53711	
4404	44.030	-770.97540	33.01472	-634.68793	801.97974	37.39254	-627.77588	-687.70557	-12.86686	502.14917	729.95001	-11.89905	588.10199	11.96918	782.70752	-922.50305	
4405	44.040	-770.90308	33.07584	-634.65637	801.92737	37.48971	-627.80176	-687.63312	-12.89948	502.15756	729.97131	-11.99037	588.14948	12.00932	782.70795	-922.52570	
4406	44.050	-770.85291	33.13790	-634.65643	802.00897	37.52709	-627.77216	-687.64191	-13.00140	502.15152	730.02582	-12.12412	588.17285	12.05936	782.81622	-922.79663	
4407	44.060	-770.78510	33.21187	-634.64374	801.96509	37.60135	-627.71893	-687.64294	-13.01651	502.19861	730.01294	-12.19598	588.23138	12.11580	782.91321	-922.95197	
4408	44.070	-770.74243	33.39990	-634.61554	801.97113	37.72234	-627.70380	-687.60828	-13.05701	502.23654	730.07556	-12.26572	588.26178	12.15640	783.08081	-923.22144	
4409	44.080	-770.65155	33.56401	-634.61163	802.00482	37.76640	-627.71155	-687.69189	-13.06827	502.23468	730.12036	-12.29183	588.31305	12.19701	783.17639	-923.28857	
4410	44.090	-770.65466	33.68525	-634.59869	802.00708	37.88728	-627.70807	-687.66345	-13.22019	502.29538	730.10638	-12.32360	588.37268	12.19167	783.27704	-923.31866	
4411	44.100	-770.64563	33.74282	-634.60760	801.95300	37.92250	-627.73853	-687.61023	-13.34694	502.30234	730.04169	-12.37689	588.39539	12.10267	783.43158	-923.23022	
4412	44.110	-770.65924	33.85326	-634.60126	801.99969	37.98787	-627.72559	-687.55603	-13.43433	502.26193	730.01752	-12.37361	588.45813	12.15086	783.55762	-922.99536	
4413	44.120	-770.64435	33.95681	-634.62762	801.85657	38.14104	-627.76819	-687.53412	-13.49208	502.28577	729.99591	-12.43188	588.48883	12.15989	783.71942	-922.67944	
4414	44.130	-770.52783	33.86864	-634.47656	801.89587	38.28188	-627.74255	-687.51569	-13.59745	502.30817	729.96222	-12.49636	588.53735	12.07417	783.97601	-922.21301	
4415	44.140	-770.53522	34.02279	-634.46326	801.88226	38.43983	-627.67310	-687.53210	-13.68845	502.38718	729.95477	-12.53481	588.56970	11.98364	784.24286	-921.87634	
4416	44.150	-770.61475	34.29205	-634.32288	801.86310	38.52699	-627.58325	-687.52130	-13.77194	502.42657	729.93158	-12.64964	588.56598	11.98075	784.47028	-921.53168	
4417	44.160	-770.63080	34.47019	-634.29016	801.86133	38.65451	-627.57941	-687.52521	-13.95322	502.44186	729.91370	-12.80758	588.62738	12.02569	784.61554	-921.14838	
4418	44.170	-770.72455	34.82587	-634.24115	801.89563	38.88932	-627.52869	-687.34174	-14.17601	502.47379	729.97064	-12.93906	588.65521	12.03357	784.87634	-920.71045	
4419	44.180	-770.72876	35.05969	-634.26471	801.97162	39.16146	-627.42877	-687.30225	-14.22952	502.57840	730.01605	-13.07388	588.73578	11.98621	785.22644	-920.40131	
4420	44.190	-770.75708	35.17934	-634.24908	802.10577	39.55444	-627.30530	-687.40979	-14.43943	502.65479	730.07190	-13.25088	588.81079	12.01253	785.53522	-920.08868	
4421	44.200	-770.87543	35.32553	-634.12378	802.06616	39.97666	-627.21277	-687.56976	-14.65967	502.65808	730.03021	-13.40743	588.86707	11.93950	785.84607	-919.83307	
4422	44.210	-770.93451	35.45742	-634.08545	802.03705	40.08403	-627.12335	-687.64301	-14.71918	502.66675	729.88190	-13.56503	588.87494	11.78698	786.10217	-919.70288	
4423	44.220	-771.11334	35.47091	-634.07318	801.79144	40.15017	-627.09137	-687.85583	-14.85144	502.67554	729.67932	-13.73317	588.86194	11.67915	786.28143	-919.61816	
4424	44.230	-771.30359	35.65567	-634.00989	801.56799	40.28604	-627.02094	-688.08569	-14.92861	502.71643	729.46765	-13.86286	588.92889	11.63939	786.46655	-919.50311	
4425	44.240	-771.54327	35.95280	-633.96307	801.31946	40.40575	-627.05206	-688.20746	-15.04378	502.75903	729.16980	-14.02615	588.93774	11.51244	786.70044	-919.29065	
4426	44.250	-771.74463	36.17866	-633.82910	801.13080	40.61529	-626.91516	-688.37134	-15.12680	502.73840	728.97955	-14.17672	589.03156	11.24454	787.21741	-918.97070	
4427	44.260	-771.90833	36.50557	-633.67859	800.91785	40.79621	-626.90570	-688.49835	-15.21143	502.74939	728.75757	-14.43185	589.09283	10.98744	787.55267	-918.73810	
4428	44.270	-772.06934	36.67528	-633.54657	800.79199	41.05437	-626.81927	-688.62250	-15.52018	502.79047	728.63898	-14.67774	589.12976	10.77094	787.89856	-918.37018	
4429	44.280	-772.08124	36.84273	-633.47449	800.58746	41.24419	-626.77759	-688.82336	-15.68328	502.82895	728.46698	-14.96351	589.18359	10.72079	788.26831	-918.01587	
4430	44.290	-772.20166	37.09239	-633.44635	800.24664	41.49622	-626.74860	-688.93878	-15.82354	502.90094	728.36829	-15.15365	589.19012	10.43401	788.64563	-917.73828	
4431	44.300	-772.33984	37.46061	-633.40808	800.05896	41.74048	-626.70319	-689.11584	-15.97974	503.02133	728.28485	-15.33725	589.22980	10.37652	788.94623	-917.35797	
4432	44.310	-772.46887	37.77236	-633.34985	799.93738	42.05341	-626.65979	-689.28772	-16.16108	503.13834	728.16254	-15.55018	589.23242	10.31498	789.31732	-916.90723	
4433	44.320	-772.68884	37.95695	-633.32727	799.80182	42.19979	-626.64624	-689.45850	-16.38638	503.23047	727.97864	-15.72527	589.25732	10.12097	789.61591	-916.26813	
4434	44.330	-772.79395	38.12090	-633.27783	799.68451	42.35932	-626.56860	-689.60632	-16.49677	503.27023	727.81866	-15.87397	589.29126	9.73527	789.97455	-915.89648	
4435	44.340	-772.87280	38.12286	-633.11035	799.52924	42.59730	-626.51581	-689.68231	-16.70789	503.34235	727.71399	-16.01265	589.30438	9.48733	790.26263	-915.43573	
